<svg width="28" height="28" viewBox="0 0 28 28" fill="none" xmlns="http://www.w3.org/2000/svg">
<path fill-rule="evenodd" clip-rule="evenodd" d="M14 28C15.8385 28 17.659 27.6379 19.3576 26.9343C21.0561 26.2307 22.5995 25.1995 23.8995 23.8995C25.1995 22.5995 26.2307 21.0561 26.9343 19.3576C27.6379 17.659 28 15.8385 28 14C28 12.1615 27.6379 10.341 26.9343 8.64243C26.2307 6.94387 25.1995 5.40053 23.8995 4.1005C22.5995 2.80048 21.0561 1.76925 19.3576 1.06569C17.659 0.362121 15.8385 -2.73959e-08 14 0C10.287 5.53285e-08 6.72601 1.475 4.10051 4.1005C1.475 6.72601 0 10.287 0 14C0 17.713 1.475 21.274 4.10051 23.8995C6.72601 26.525 10.287 28 14 28ZM13.6391 19.6622L21.4169 10.3289L19.0276 8.33778L12.3387 16.3629L8.87756 12.9002L6.678 15.0998L11.3447 19.7664L12.5487 20.9704L13.6391 19.6622Z" fill="#12BA23"/>
</svg>
