<svg width="24" height="25" viewBox="0 0 24 25" fill="none" xmlns="http://www.w3.org/2000/svg">
<path fill-rule="evenodd" clip-rule="evenodd" d="M11.0021 4.92859H2.64474C1.18352 4.92859 0 6.18352 0 7.72937V21.7307C0 23.2778 1.18352 24.5314 2.64474 24.5314H17.1908C18.6521 24.5314 19.8356 23.2778 19.8356 21.7307V11.4823L14.6598 16.9622C14.2078 17.4455 13.6192 17.7795 12.9725 17.9196L9.42719 18.6707C7.11304 19.16 5.07394 17.0005 5.53677 14.5515L6.24556 10.7973C6.37383 10.1202 6.68856 9.49739 7.15007 9.00943L11.0021 4.92859Z" fill="#FFCC00"/>
<path fill-rule="evenodd" clip-rule="evenodd" d="M23.7958 1.74162C23.6621 1.40313 23.4661 1.09274 23.2179 0.826538C22.9739 0.566201 22.6797 0.357936 22.3531 0.21428C22.0313 0.0729664 21.6837 0 21.3322 0C20.9807 0 20.6331 0.0729664 20.3113 0.21428C19.9847 0.357936 19.6905 0.566201 19.4465 0.826538L18.7245 1.59087L22.4959 5.58443L23.2179 4.81878C23.4687 4.5546 23.665 4.24367 23.7958 3.9037C24.0682 3.20875 24.0682 2.43657 23.7958 1.74162ZM20.6274 7.56402L16.8546 3.56914L10.5377 10.2603C10.4445 10.3596 10.3816 10.4835 10.3565 10.6174L9.64772 14.3729C9.55515 14.8622 9.96377 15.2933 10.4253 15.1954L13.9719 14.4456C14.1009 14.4169 14.2184 14.3501 14.3091 14.2539L20.6274 7.56402Z" fill="black"/>
</svg>
