<svg width="19" height="25" viewBox="0 0 19 25" fill="none" xmlns="http://www.w3.org/2000/svg">
<path d="M1.46154 8.39136V23.3914C1.46154 24.2164 2.11923 24.8914 2.92308 24.8914H16.0769C16.8808 24.8914 17.5385 24.2164 17.5385 23.3914V8.39136H1.46154ZM5.84615 21.8914H4.38462V11.3914H5.84615V21.8914ZM8.76923 21.8914H7.30769V11.3914H8.76923V21.8914ZM11.6923 21.8914H10.2308V11.3914H11.6923V21.8914ZM14.6154 21.8914H13.1538V11.3914H14.6154V21.8914ZM17.9038 3.89136H13.1538V2.01636C13.1527 1.71835 13.0368 1.43289 12.8315 1.22217C12.6262 1.01145 12.3481 0.892542 12.0577 0.891357L6.94231 0.891357C6.65195 0.892542 6.3738 1.01145 6.16849 1.22217C5.96317 1.43289 5.84731 1.71835 5.84615 2.01636V3.89136H1.09615C0.805436 3.89136 0.526625 4.00988 0.321056 4.22086C0.115487 4.43184 0 4.71799 0 5.01636V6.89136H19V5.01636C19 4.71799 18.8845 4.43184 18.6789 4.22086C18.4734 4.00988 18.1946 3.89136 17.9038 3.89136ZM11.6923 3.89136H7.30769V2.41086H11.6923V3.89136Z" fill="#B02600"/>
</svg>
