<svg width="53" height="55" viewBox="0 0 53 55" fill="none" xmlns="http://www.w3.org/2000/svg">
<path d="M47.7 5H45.05V0H39.75V5H13.25V0H7.95V5H5.3C3.89435 5 2.54628 5.52678 1.55233 6.46447C0.558391 7.40215 0 8.67392 0 10V50C0 51.3261 0.558391 52.5979 1.55233 53.5355C2.54628 54.4732 3.89435 55 5.3 55H47.7C49.1056 55 50.4537 54.4732 51.4477 53.5355C52.4416 52.5979 53 51.3261 53 50V10C53 8.67392 52.4416 7.40215 51.4477 6.46447C50.4537 5.52678 49.1056 5 47.7 5ZM14.6545 50H5.3V41.175L30.2365 17.65L39.591 26.475L14.6545 50ZM46.958 19.525L42.082 24.125L32.7275 15.3L37.63 10.7C37.8572 10.4792 38.1291 10.3038 38.4295 10.1839C38.73 10.0641 39.0528 10.0023 39.379 10.0023C39.7052 10.0023 40.028 10.0641 40.3285 10.1839C40.6289 10.3038 40.9008 10.4792 41.128 10.7L46.958 16.2C47.1896 16.4182 47.3733 16.6774 47.4986 16.9627C47.6239 17.2479 47.6884 17.5537 47.6884 17.8625C47.6884 18.1713 47.6239 18.4771 47.4986 18.7623C47.3733 19.0476 47.1896 19.3068 46.958 19.525Z" fill="#00CCFF"/>
</svg>
