<svg width="29" height="29" viewBox="0 0 29 29" fill="none" xmlns="http://www.w3.org/2000/svg">
<path d="M5.10204 24.8979C3.7649 23.6065 2.69834 22.0616 1.96462 20.3536C1.23089 18.6455 0.844685 16.8084 0.828532 14.9495C0.812378 13.0906 1.1666 11.2471 1.87053 9.52656C2.57447 7.80601 3.61401 6.24288 4.92851 4.92839C6.24301 3.61389 7.80613 2.57434 9.52668 1.87041C11.2472 1.16648 13.0907 0.812256 14.9497 0.828409C16.8086 0.844563 18.6456 1.23077 20.3537 1.9645C22.0618 2.69822 23.6066 3.76477 24.898 5.10192C27.4483 7.74235 28.8594 11.2788 28.8275 14.9495C28.7956 18.6203 27.3232 22.1317 24.7275 24.7274C22.1318 27.3231 18.6204 28.7955 14.9497 28.8274C11.2789 28.8592 7.74247 27.4481 5.10204 24.8979ZM16.96 14.9999L20.922 11.0379L18.948 9.06392L15 13.0259L11.038 9.06392L9.06404 11.0379L13.026 14.9999L9.06404 18.9619L11.038 20.9359L15 16.9739L18.962 20.9359L20.936 18.9619L16.974 14.9999H16.96Z" fill="#B02600"/>
</svg>
